<?xml version="1.0" encoding="utf-8"?>
<!-- Svg Vector Icons : http://www.onlinewebfonts.com/icon -->
<!DOCTYPE svg PUBLIC "-//W3C//DTD SVG 1.1//EN" "http://www.w3.org/Graphics/SVG/1.1/DTD/svg11.dtd">
<svg version="1.1" xmlns="http://www.w3.org/2000/svg" xmlns:xlink="http://www.w3.org/1999/xlink" x="0px" y="0px"  fill="#DF2242" viewBox="0 0 1000 1000" enable-background="new 0 0 1000 1000" xml:space="preserve">
<metadata> Svg Vector Icons : http://www.onlinewebfonts.com/icon </metadata>
<g><path d="M500,10C229.4,10,10,229.4,10,500s219.4,490,490,490s490-219.4,490-490S770.6,10,500,10z M500,920C268,920,80,732,80,500S268,80,500,80s420,188,420,420S732,920,500,920z M500,710L500,710c19.4,0,35,15.6,35,35l0,0c0,19.4-15.6,35-35,35l0,0c-19.4,0-35-15.6-35-35l0,0C465,725.6,480.6,710,500,710z M500,220L500,220c19.4,0,35,15.6,35,35v350c0,19.4-15.6,35-35,35l0,0c-19.4,0-35-15.6-35-35V255C465,235.6,480.6,220,500,220z"/></g>
</svg>